# xmcd CD database file
#
# Track frame offsets:
#	150
#	16052
#	30450
#	50887
#	74590
#	99521
#	120223
#	146020
#	163232
#	178457
#	194472
#	209136
#	228038
#
# Disc length: 3217 seconds
#
# Revision: 3
# Processed by: cddbd v1.5.2PL0 Copyright (c) Steve Scherf et al.
# Submitted via: CDex 1.51
#
DISCID=be0c8f0d
DTITLE=Rob Tognoni - 2010db
DYEAR=2009
DGENRE=Blues Rock
TTITLE0=This is Rock 'N' Roll
TTITLE1=Boogie Like You Never Did
TTITLE2=Can't See The Smoke
TTITLE3=Another Tequila
TTITLE4=Pourin' Down On Me
TTITLE5=TV Preacher
TTITLE6=Spaceman
TTITLE7=2010db
TTITLE8=The Broken String
TTITLE9=Light Of Day
TTITLE10=Stupid Mistake
TTITLE11=San Francisco
TTITLE12=Honeymoon Is Over
EXTD=YEAR: 2009
EXTT0=
EXTT1=
EXTT2=
EXTT3=
EXTT4=
EXTT5=
EXTT6=
EXTT7=
EXTT8=
EXTT9=
EXTT10=
EXTT11=
EXTT12=
PLAYORDER=
